<?xml version="1.0" standalone="no"?>
<!DOCTYPE svg PUBLIC "-//W3C//DTD SVG 20010904//EN"
 "http://www.w3.org/TR/2001/REC-SVG-20010904/DTD/svg10.dtd">
<svg version="1.0" xmlns="http://www.w3.org/2000/svg"
 width="141.000000pt" height="157.000000pt" viewBox="0 0 141.000000 157.000000"
 preserveAspectRatio="xMidYMid meet">

<g transform="translate(0.000000,157.000000) scale(0.100000,-0.100000)"
fill="#000000" stroke="none">
<path d="M601 1499 c-129 -25 -258 -125 -316 -242 -44 -91 -62 -162 -76 -299
-24 -243 20 -386 198 -640 223 -319 373 -318 600 2 183 257 230 436 188 710
-25 170 -67 261 -157 347 -116 109 -275 154 -437 122z m-231 -752 c74 -41 177
-146 228 -232 47 -79 45 -83 -40 -66 -168 35 -270 138 -285 289 -6 54 -6 54
18 47 13 -4 49 -21 79 -38z m770 5 c0 -149 -113 -268 -289 -303 -34 -6 -64 -9
-67 -6 -20 19 115 199 193 259 45 34 139 87 156 88 4 0 7 -17 7 -38z"/>
</g>
</svg>
